<svg width="38" height="41" viewBox="0 0 38 41" fill="none" xmlns="http://www.w3.org/2000/svg">
<path d="M10.8838 20.1858C10.885 19.8543 11.008 19.5368 11.2257 19.3032C11.4434 19.0696 11.7379 18.9389 12.0446 18.94L17.4296 18.9596L17.4507 13.138C17.4519 12.8064 17.5749 12.4889 17.7926 12.2553C18.0103 12.0217 18.3048 11.891 18.6115 11.8922C18.9181 11.8933 19.2118 12.026 19.4277 12.2612C19.6437 12.4964 19.7644 12.8148 19.7632 13.1463L19.7421 18.968L25.1271 18.9875C25.4337 18.9886 25.7274 19.1214 25.9433 19.3566C26.1593 19.5918 26.28 19.9102 26.2788 20.2417C26.2776 20.5732 26.1546 20.8907 25.9369 21.1243C25.7192 21.358 25.4247 21.4886 25.118 21.4875L19.733 21.468L19.7119 27.2896C19.7107 27.6211 19.5877 27.9386 19.37 28.1722C19.1523 28.4059 18.8578 28.5365 18.5511 28.5354C18.2444 28.5343 17.9508 28.4015 17.7348 28.1663C17.5189 27.9311 17.3982 27.6127 17.3994 27.2812L17.4205 21.4596L12.0355 21.44C11.7289 21.4389 11.4352 21.3062 11.2193 21.0709C11.0033 20.8357 10.8826 20.5174 10.8838 20.1858Z" fill="black"/>
<path fill-rule="evenodd" clip-rule="evenodd" d="M11.4183 6.58669C16.2186 6.07214 21.061 6.08971 25.8574 6.63908C28.6729 6.9638 30.9388 9.19049 31.2584 12.0237C31.8112 16.8928 31.7933 21.8091 31.2053 26.6741C30.8635 29.5049 28.5815 31.7135 25.7653 32.0194C20.9651 32.5339 16.1226 32.5164 11.3262 31.967C8.51072 31.6407 6.24483 29.4156 5.92519 26.5823C5.37499 21.7133 5.39283 16.7969 5.97834 11.932C6.31853 9.10116 8.60207 6.89097 11.4183 6.58669ZM25.5932 8.93522C20.9668 8.4054 16.296 8.38845 11.6659 8.88468C10.8087 8.97663 10.0076 9.35485 9.39196 9.95825C8.7763 10.5617 8.38205 11.355 8.27289 12.2101C7.70756 16.8962 7.69038 21.6323 8.22169 26.3224C8.32496 27.178 8.71359 27.9739 9.32482 28.5814C9.93606 29.1889 10.7342 29.5727 11.5904 29.6708C16.1781 30.1993 20.9264 30.2166 25.5178 29.7214C26.3744 29.6292 27.175 29.251 27.7903 28.648C28.4056 28.0449 28.7998 27.2521 28.9092 26.3975C29.4745 21.7113 29.4917 16.9753 28.9604 12.2852C28.8568 11.4301 28.4683 10.6348 27.8574 10.0276C27.2465 9.42037 26.4489 9.03665 25.5932 8.9383" fill="black"/>
</svg>
