<svg width="20" height="16" viewBox="0 0 20 16" fill="none" xmlns="http://www.w3.org/2000/svg">
<path d="M10.1382 12.1355C10.5111 12.1369 10.8682 12.2962 11.1309 12.5785C11.3936 12.8607 11.5404 13.2428 11.539 13.6406C11.5375 14.0384 11.388 14.4194 11.1232 14.6998C10.8585 14.9801 10.5003 15.1369 10.1273 15.1355C9.75434 15.1341 9.39723 14.9748 9.13453 14.6926C8.87183 14.4103 8.72506 14.0282 8.72651 13.6304C8.72795 13.2326 8.87749 12.8516 9.14223 12.5713C9.40697 12.2909 9.76522 12.1342 10.1382 12.1355ZM10.1527 8.13555C11.5201 8.14029 12.8294 8.72417 13.7927 9.75877C14.0478 10.0313 14.1948 10.3981 14.2032 10.7832C14.2115 11.1683 14.0807 11.5421 13.8378 11.8272C13.5949 12.1124 13.2585 12.287 12.8984 12.3148C12.5382 12.3427 12.1818 12.2217 11.9031 11.9769L11.7966 11.8735C11.5798 11.6406 11.3221 11.4556 11.0381 11.3289C10.7542 11.2023 10.4496 11.1366 10.1418 11.1355C9.55869 11.1334 9.02632 11.3565 8.61433 11.731L8.48261 11.8615C8.21791 12.1419 7.85966 12.2988 7.48667 12.2975C7.11368 12.2963 6.75651 12.137 6.49373 11.8548C6.23094 11.5726 6.08407 11.1905 6.08543 10.7927C6.08679 10.3948 6.23625 10.0137 6.50096 9.73331C7.47164 8.70536 8.78521 8.13063 10.1527 8.13555ZM10.1672 4.13558C12.6262 4.1445 14.8508 5.21758 16.4542 6.94141C16.5919 7.07923 16.7021 7.24523 16.7783 7.42951C16.8545 7.61379 16.8951 7.81256 16.8977 8.01398C16.9003 8.21539 16.8648 8.41532 16.7934 8.60184C16.722 8.78836 16.6161 8.95765 16.4821 9.0996C16.348 9.24155 16.1886 9.35326 16.0132 9.42807C15.8378 9.50287 15.6501 9.53924 15.4613 9.535C15.2725 9.53076 15.0865 9.48601 14.9143 9.4034C14.7421 9.32079 14.5873 9.20202 14.4591 9.05418C13.8959 8.44772 13.2258 7.96601 12.4874 7.63675C11.749 7.30748 10.9568 7.13716 10.1563 7.13556C9.35596 7.13161 8.56268 7.29641 7.82207 7.62047C7.08145 7.94454 6.40811 8.42149 5.84072 9.02391C5.57602 9.30435 5.21777 9.46119 4.84478 9.45993C4.47179 9.45867 4.11462 9.29941 3.85183 9.01719C3.58905 8.73498 3.44218 8.35292 3.44354 7.95506C3.44489 7.5572 3.59436 7.17614 3.85906 6.89571C4.68868 6.01552 5.67296 5.31861 6.75546 4.84497C7.83796 4.37132 8.99738 4.13025 10.1672 4.13558ZM10.1817 0.135608C13.6757 0.148285 16.8371 1.67277 19.1166 4.12205C19.2467 4.26186 19.3496 4.42763 19.4196 4.60991C19.4896 4.79218 19.5252 4.98739 19.5245 5.18439C19.5237 5.38139 19.4866 5.57632 19.4152 5.75804C19.3438 5.93977 19.2396 6.10474 19.1085 6.24353C18.9773 6.38233 18.8219 6.49222 18.651 6.56695C18.4801 6.64167 18.297 6.67977 18.1123 6.67905C17.9277 6.67833 17.7449 6.63882 17.5746 6.56277C17.4043 6.48672 17.2496 6.37562 17.1196 6.23582C16.2103 5.25586 15.1283 4.47746 13.9358 3.9454C12.7432 3.41334 11.4637 3.13812 10.1708 3.13559C7.45212 3.12572 4.98883 4.29079 3.19883 6.18531C3.06917 6.33053 2.91355 6.44656 2.74116 6.52655C2.56877 6.60654 2.38311 6.64887 2.19516 6.65102C2.00721 6.65317 1.82077 6.61511 1.64688 6.53909C1.47299 6.46306 1.31517 6.35062 1.18274 6.2084C1.05032 6.06618 0.945978 5.89708 0.875891 5.71108C0.805804 5.52508 0.771391 5.32597 0.774688 5.1255C0.777985 4.92504 0.818924 4.72729 0.895085 4.54396C0.971246 4.36062 1.08108 4.19542 1.21811 4.05811C2.39659 2.80684 3.79514 1.81617 5.33341 1.14302C6.87167 0.469868 8.51933 0.127509 10.1817 0.135608Z" fill="black"/>
</svg>
