<svg width="31" height="31" viewBox="0 0 31 31" fill="none" xmlns="http://www.w3.org/2000/svg">
<mask id="path-1-inside-1_22_50" fill="white">
<path fill-rule="evenodd" clip-rule="evenodd" d="M18.9439 21.649C16.6157 23.4955 13.6689 24.3804 10.7088 24.122C7.74859 23.8635 4.99972 22.4814 3.02674 20.2594C1.05375 18.0373 0.0064175 15.1442 0.0998432 12.174C0.193269 9.20389 1.42036 6.38226 3.5291 4.28865C5.63783 2.19504 8.46813 0.98839 11.4387 0.916514C14.4093 0.844639 17.2946 1.913 19.5021 3.90217C21.7096 5.89134 23.0717 8.65033 23.3087 11.6125C23.5456 14.5746 22.6394 17.5151 20.7762 19.8299L29.6243 28.7412C29.7508 28.86 29.852 29.0029 29.9221 29.1617C29.9921 29.3204 30.0294 29.4916 30.0319 29.665C30.0343 29.8385 30.0018 30.0107 29.9362 30.1713C29.8707 30.3319 29.7734 30.4777 29.6503 30.5999C29.5272 30.7221 29.3808 30.8183 29.2197 30.8827C29.0586 30.9471 28.8862 30.9784 28.7128 30.9747C28.5393 30.971 28.3684 30.9324 28.2102 30.8612C28.052 30.79 27.9098 30.6877 27.792 30.5604L18.9439 21.649ZM5.30247 18.9091C4.04294 17.6402 3.18781 16.0263 2.84516 14.2715C2.50251 12.5168 2.68771 10.6998 3.37737 9.0502C4.06702 7.40064 5.23016 5.99255 6.7198 5.00389C8.20944 4.01524 9.95872 3.49038 11.7465 3.49567C13.5344 3.50095 15.2805 4.03613 16.7643 5.03358C18.2481 6.03102 19.4029 7.44596 20.0827 9.09957C20.7626 10.7532 20.9371 12.5712 20.5841 14.324C20.2311 16.0767 19.3664 17.6855 18.0994 18.9469L18.0908 18.9555L18.0821 18.9623C16.3796 20.6487 14.0775 21.5903 11.6813 21.5803C9.28508 21.5703 6.99083 20.6096 5.30247 18.9091Z"/>
</mask>
<path fill-rule="evenodd" clip-rule="evenodd" d="M18.9439 21.649C16.6157 23.4955 13.6689 24.3804 10.7088 24.122C7.74859 23.8635 4.99972 22.4814 3.02674 20.2594C1.05375 18.0373 0.0064175 15.1442 0.0998432 12.174C0.193269 9.20389 1.42036 6.38226 3.5291 4.28865C5.63783 2.19504 8.46813 0.98839 11.4387 0.916514C14.4093 0.844639 17.2946 1.913 19.5021 3.90217C21.7096 5.89134 23.0717 8.65033 23.3087 11.6125C23.5456 14.5746 22.6394 17.5151 20.7762 19.8299L29.6243 28.7412C29.7508 28.86 29.852 29.0029 29.9221 29.1617C29.9921 29.3204 30.0294 29.4916 30.0319 29.665C30.0343 29.8385 30.0018 30.0107 29.9362 30.1713C29.8707 30.3319 29.7734 30.4777 29.6503 30.5999C29.5272 30.7221 29.3808 30.8183 29.2197 30.8827C29.0586 30.9471 28.8862 30.9784 28.7128 30.9747C28.5393 30.971 28.3684 30.9324 28.2102 30.8612C28.052 30.79 27.9098 30.6877 27.792 30.5604L18.9439 21.649ZM5.30247 18.9091C4.04294 17.6402 3.18781 16.0263 2.84516 14.2715C2.50251 12.5168 2.68771 10.6998 3.37737 9.0502C4.06702 7.40064 5.23016 5.99255 6.7198 5.00389C8.20944 4.01524 9.95872 3.49038 11.7465 3.49567C13.5344 3.50095 15.2805 4.03613 16.7643 5.03358C18.2481 6.03102 19.4029 7.44596 20.0827 9.09957C20.7626 10.7532 20.9371 12.5712 20.5841 14.324C20.2311 16.0767 19.3664 17.6855 18.0994 18.9469L18.0908 18.9555L18.0821 18.9623C16.3796 20.6487 14.0775 21.5903 11.6813 21.5803C9.28508 21.5703 6.99083 20.6096 5.30247 18.9091Z" fill="black"/>
<path d="M18.9439 21.649L29.5882 11.0803L20.1349 1.55945L9.62291 9.89663L18.9439 21.649ZM20.7762 19.8299L9.09118 10.4245L0.677835 20.8771L10.1319 30.3987L20.7762 19.8299ZM29.6243 28.7412L18.98 39.31L19.166 39.4973L19.3584 39.6779L29.6243 28.7412ZM27.792 30.5604L38.8035 20.3747L38.6233 20.1799L38.4363 19.9916L27.792 30.5604ZM5.30247 18.9091L-5.3434 29.4763L-5.34197 29.4777L5.30247 18.9091ZM18.0994 18.9469L28.6678 29.5916L28.6752 29.5842L28.6826 29.5768L18.0994 18.9469ZM18.0908 18.9555L27.4184 30.7026L28.0693 30.1858L28.6591 29.6002L18.0908 18.9555ZM18.0821 18.9623L8.75447 7.21521L8.11042 7.72662L7.52614 8.30536L18.0821 18.9623ZM9.62291 9.89663C10.2986 9.36072 11.154 9.10379 12.0134 9.17883L9.40412 39.0651C16.1839 39.6571 22.9328 37.6303 28.2649 33.4015L9.62291 9.89663ZM12.0134 9.17883C12.8728 9.25386 13.6707 9.65512 14.2432 10.2999L-8.18975 30.2188C-3.67124 35.3076 2.62436 38.4732 9.40412 39.0651L12.0134 9.17883ZM14.2432 10.2999C14.8157 10.9447 15.1195 11.7841 15.0924 12.6456L-14.8927 11.7024C-15.1067 18.5043 -12.7082 25.13 -8.18975 30.2188L14.2432 10.2999ZM15.0924 12.6456C15.0653 13.5072 14.7094 14.3258 14.0974 14.9334L-7.03926 -6.35606C-11.8687 -1.5613 -14.6788 4.9006 -14.8927 11.7024L15.0924 12.6456ZM14.0974 14.9334C13.4855 15.5409 12.664 15.8913 11.8015 15.9121L11.0759 -14.0791C4.2723 -13.9145 -2.20983 -11.1508 -7.03926 -6.35606L14.0974 14.9334ZM11.8015 15.9121C10.9391 15.933 10.1016 15.6228 9.46091 15.0455L29.5433 -7.24118C24.4876 -11.7968 17.8794 -14.2437 11.0759 -14.0791L11.8015 15.9121ZM9.46091 15.0455C8.82027 14.4682 8.42515 13.6677 8.35642 12.8085L38.2609 10.4164C37.7183 3.63291 34.599 -2.68556 29.5433 -7.24118L9.46091 15.0455ZM8.35642 12.8085C8.28769 11.9493 8.55053 11.0962 9.09118 10.4245L32.4612 29.2353C36.7283 23.9339 38.8035 17.2 38.2609 10.4164L8.35642 12.8085ZM10.1319 30.3987L18.98 39.31L40.2686 18.1725L31.4205 9.26112L10.1319 30.3987ZM19.3584 39.6779C18.0161 38.418 16.9415 36.9007 16.1984 35.2165L43.6457 23.1068C42.7626 21.1052 41.4854 19.3019 39.8902 17.8045L19.3584 39.6779ZM16.1984 35.2165C15.4554 33.5325 15.0591 31.7159 15.0333 29.8752L45.0304 29.4549C44.9997 27.2672 44.5288 25.1083 43.6457 23.1068L16.1984 35.2165ZM15.0333 29.8752C15.0076 28.0345 15.3528 26.2076 16.0483 24.5034L43.8241 35.8392C44.6508 33.8138 45.0611 31.6425 45.0304 29.4549L15.0333 29.8752ZM16.0483 24.5034C16.7438 22.7992 17.7755 21.2523 19.082 19.9552L40.2187 41.2446C41.7714 39.7031 42.9975 37.8647 43.8241 35.8392L16.0483 24.5034ZM19.082 19.9552C20.3885 18.6581 21.9428 17.6375 23.6521 16.9542L34.7872 44.8112C36.8188 43.9991 38.666 42.7862 40.2187 41.2446L19.082 19.9552ZM23.6521 16.9542C25.3615 16.2709 27.1911 15.9389 29.0318 15.9781L28.3937 45.9713C30.5813 46.0178 32.7557 45.6232 34.7872 44.8112L23.6521 16.9542ZM29.0318 15.9781C30.8725 16.0172 32.6864 16.4268 34.3651 17.1821L22.0553 44.5403C24.0505 45.438 26.2061 45.9247 28.3937 45.9713L29.0318 15.9781ZM34.3651 17.1821C36.044 17.9375 37.5534 19.0233 38.8035 20.3747L16.7805 40.746C18.2662 42.3521 20.0601 43.6426 22.0553 44.5403L34.3651 17.1821ZM38.4363 19.9916L29.5882 11.0803L8.29959 32.2178L17.1477 41.1292L38.4363 19.9916ZM15.9483 8.34189C16.7781 9.17788 17.3414 10.241 17.5671 11.3969L-11.8768 17.1462C-10.9658 21.8117 -8.69227 26.1025 -5.3434 29.4763L15.9483 8.34189ZM17.5671 11.3969C17.7928 12.5527 17.6708 13.7495 17.2166 14.8361L-10.4618 3.26428C-12.2954 7.64999 -12.7878 12.4808 -11.8768 17.1462L17.5671 11.3969ZM17.2166 14.8361C16.7623 15.9227 15.996 16.8504 15.0145 17.5018L-1.57492 -7.49401C-5.53569 -4.86529 -8.62823 -1.12144 -10.4618 3.26428L17.2166 14.8361ZM15.0145 17.5018C14.033 18.1532 12.8804 18.4991 11.7022 18.4956L11.7909 -11.5043C7.03707 -11.5183 2.38587 -10.1227 -1.57492 -7.49401L15.0145 17.5018ZM11.7022 18.4956C10.5241 18.4921 9.37347 18.1394 8.39583 17.4822L25.1327 -7.41508C21.1876 -10.0672 16.5447 -11.4902 11.7909 -11.5043L11.7022 18.4956ZM8.39583 17.4822C7.41821 16.825 6.65746 15.8929 6.2096 14.8036L33.9559 3.39555C32.1483 -1.00093 29.0779 -4.76299 25.1327 -7.41508L8.39583 17.4822ZM6.2096 14.8036C5.76175 13.7143 5.64684 12.5168 5.87937 11.3623L35.2888 17.2856C36.2274 12.6257 35.7635 7.79203 33.9559 3.39555L6.2096 14.8036ZM5.87937 11.3623C6.11189 10.2078 6.68145 9.14804 7.51618 8.31697L28.6826 29.5768C32.0514 26.2229 34.3502 21.9456 35.2888 17.2856L5.87937 11.3623ZM7.53105 8.30219L7.52241 8.31077L28.6591 29.6002L28.6678 29.5916L7.53105 8.30219ZM8.76311 7.20836L8.75447 7.21521L27.4098 30.7095L27.4184 30.7026L8.76311 7.20836ZM7.52614 8.30536C8.64778 7.19435 10.1647 6.57384 11.7438 6.58042L11.6188 36.5802C17.9902 36.6067 24.1115 34.103 28.6381 29.6193L7.52614 8.30536ZM11.7438 6.58042C13.3229 6.587 14.8346 7.22013 15.9469 8.34046L-5.34197 29.4777C-0.852907 33.999 5.2473 36.5536 11.6188 36.5802L11.7438 6.58042Z" fill="black" mask="url(#path-1-inside-1_22_50)"/>
</svg>
