<svg width="124" height="36" viewBox="0 0 124 36" fill="none" xmlns="http://www.w3.org/2000/svg">
<g clip-path="url(#clip0_20_39)">
<path d="M7.00431 0.221559C4.48805 1.26665 1.70451 4.24854 0.820078 7.99034C-0.30823 12.7353 4.29896 14.76 4.67172 14.0987C5.11495 13.3272 3.84467 13.0616 3.59338 10.5908C3.27457 7.41691 4.7689 3.86809 6.62634 2.31859C6.96773 2.02867 6.95626 2.43023 6.95353 3.18324C6.94868 4.51857 6.83515 16.4962 6.82608 18.9961C6.81381 22.3796 6.66981 23.4434 6.4157 24.5067C6.16156 25.5801 5.74854 26.3015 6.05786 26.5737C6.39706 26.8862 7.88119 26.1486 8.73635 24.9569C9.76255 23.5249 10.1291 21.8093 10.196 19.9421C10.2842 17.6934 10.2872 14.1191 10.3046 12.081C10.3113 10.2135 10.3612 4.7418 10.3131 1.44843C10.296 0.635112 8.06694 -0.216356 7.00431 0.221559ZM96.3435 16.3792C96.257 18.1359 95.8617 19.51 95.3777 20.4821C94.4399 22.3562 92.496 22.9315 91.685 20.2277C91.2398 18.7602 91.2287 16.3004 91.5565 14.2433C91.8944 12.1562 92.8111 10.5731 94.332 10.7292C95.8329 10.8753 96.5166 12.8055 96.3435 16.3792ZM71.1095 27.2013C71.0789 30.1229 70.6091 32.6815 69.6255 33.4209C68.2303 34.47 66.3514 33.67 66.7495 31.543C67.0966 29.6567 68.7352 27.7349 71.116 25.3941C71.116 25.3941 71.1241 25.9263 71.1095 27.2013ZM70.7687 16.2763C70.6828 17.8824 70.2566 19.4873 69.8029 20.3893C68.8652 22.2634 66.9112 22.8387 66.1102 20.1349C65.5664 18.2856 65.7051 15.8965 65.9809 14.3915C66.3383 12.4349 67.2057 10.6308 68.7572 10.6365C70.2587 10.6419 70.9934 12.3012 70.7687 16.2763ZM56.1747 16.1932C56.0785 17.8897 55.743 19.3041 55.2087 20.3364C54.241 22.2003 52.3471 22.7858 51.516 20.082C50.9225 18.1421 51.1323 15.4922 51.3878 14.0574C51.7658 11.9302 52.7022 10.4376 54.1631 10.5835C55.654 10.7395 56.3777 12.6598 56.1747 16.1932ZM123.052 18.4138C122.682 18.4125 122.52 18.7934 122.378 19.4254C121.89 21.6325 121.387 22.1327 120.737 22.1303C120.016 22.1277 119.369 21.031 119.207 18.8416C119.083 17.1143 119.115 13.9517 119.296 10.7897C119.329 10.1372 119.161 9.50407 117.421 8.86522C116.672 8.59141 115.592 8.18589 115.047 9.48914C113.512 13.1784 112.901 16.1079 112.756 17.2921C112.746 17.3523 112.676 17.3621 112.656 17.2215C112.57 16.2673 112.376 14.5297 112.369 10.8951C112.372 10.1822 112.224 9.5793 111.435 9.08446C110.925 8.76133 109.396 8.18349 108.833 8.86418C108.351 9.41464 107.785 10.8985 107.208 12.6635C106.732 14.0976 106.398 15.0602 106.398 15.0602C106.398 15.0602 106.422 11.1948 106.427 9.72895C106.429 9.17675 106.05 8.99464 105.94 8.95408C105.43 8.80163 104.42 8.54696 103.989 8.5454C103.459 8.54347 103.328 8.8442 103.326 9.27593C103.326 9.33617 103.228 14.366 103.215 17.89C103.214 18.0406 103.214 18.2113 103.213 18.392C102.917 20.0074 101.958 22.2028 100.917 22.199C99.8859 22.1953 99.3988 21.2698 99.4139 17.0831C99.4228 14.6333 99.4968 13.5693 99.5432 11.8024C99.567 10.7784 99.6098 9.99538 99.6105 9.8247C99.6024 9.2825 98.6625 8.99796 98.2325 8.896C97.7924 8.794 97.4122 8.75246 97.1118 8.77145C96.6913 8.79 96.39 9.07004 96.3886 9.45156C96.3879 9.65236 96.3865 10.0439 96.3865 10.0439C95.8491 9.18856 94.9704 8.58296 94.3905 8.41017C92.8307 7.93262 91.1875 8.34834 89.9501 10.0708C88.9641 11.4427 88.3679 12.9968 88.1296 15.2349C87.9535 16.8708 88.0075 18.5276 88.3027 19.9343C87.9366 21.5194 87.2536 22.1595 86.5129 22.1568C85.4318 22.1529 84.6575 20.383 84.7586 17.3411C84.826 15.3333 85.2315 13.9292 85.6793 11.8926C85.8726 11.0299 85.7141 10.5675 85.3453 10.1344C84.9964 9.73151 84.2564 9.52802 83.1845 9.77514C82.4231 9.9531 81.3314 10.1399 80.3399 10.2869C80.3399 10.2869 80.4008 10.0462 80.4524 9.62466C80.7207 7.40675 78.3077 7.57871 77.5444 8.27876C77.0824 8.69877 76.7703 9.19965 76.6469 10.0928C76.4516 11.5178 77.6103 12.1947 77.6103 12.1947C77.2235 13.9403 76.2844 16.216 75.3175 17.8591C74.8038 18.7408 74.401 19.3919 73.888 20.0929C73.8889 19.8318 73.8899 19.5708 73.8908 19.3198C73.8941 15.6451 73.9546 12.7638 73.9784 11.7197C74.0021 10.6956 74.045 9.93274 74.0456 9.76206C74.037 9.36042 73.8073 9.20898 73.3276 9.01648C72.8978 8.84423 72.3977 8.73198 71.8773 8.68993C71.217 8.60721 70.8153 8.95716 70.8238 9.36884C70.8235 9.44916 70.8218 9.93109 70.8218 9.93109C70.2844 9.07572 69.4057 8.47012 68.8258 8.29733C67.2659 7.82982 65.6228 8.2355 64.3854 9.95793C63.3994 11.3299 62.7518 13.2552 62.5649 15.102C62.3885 16.8282 62.4133 18.2842 62.639 19.5199C62.3843 20.754 61.6689 22.0466 60.8581 22.0436C59.8271 22.0399 59.2399 21.114 59.2551 16.9273C59.264 14.4775 59.3379 13.4135 59.3843 11.6466C59.4081 10.6226 59.451 9.83963 59.4516 9.66895C59.4435 9.12675 58.5036 8.84221 58.0736 8.74025C57.6135 8.62813 57.2233 8.5966 56.9229 8.61559C56.5224 8.64426 56.2408 9.00468 56.2399 9.26572L56.2376 9.88821C55.7002 9.03284 54.8215 8.42724 54.2416 8.25445C52.6818 7.78694 51.0487 8.19266 49.8012 9.91506C48.9863 11.0366 48.3312 12.2792 47.9809 15.039C47.8779 15.8318 47.8351 16.5847 47.8426 17.2775C47.5151 19.2542 46.0754 21.5382 44.9143 21.5339C44.2336 21.5315 43.5878 20.2038 43.5981 17.3725C43.6118 13.5974 43.8615 8.23687 43.9034 7.71493C43.9034 7.71493 45.3749 7.70019 45.6652 7.6912C46.396 7.68381 47.0665 7.70633 48.0477 7.65968C48.5382 7.64138 49.0151 5.86599 48.5154 5.65334C48.2855 5.5521 46.6643 5.45586 46.0137 5.44345C45.4732 5.43145 43.9621 5.31553 43.9621 5.31553C43.9621 5.31553 44.1152 1.7518 44.1466 1.38043C44.1778 1.06929 43.7679 0.907164 43.5381 0.805928C42.9784 0.562932 42.4683 0.450638 41.8682 0.317938C41.038 0.144242 40.667 0.31358 40.5945 1.00609C40.4805 2.06994 40.4091 5.18215 40.4091 5.18215C39.7985 5.17994 37.727 5.05194 37.1264 5.04976C36.5659 5.04773 35.9464 7.47521 36.7271 7.50817C37.6279 7.54156 39.1893 7.57734 40.2201 7.62124C40.2201 7.62124 40.1502 13.0829 40.1442 14.7596C40.1435 14.9403 40.1429 15.111 40.1423 15.2817C39.5609 18.2615 37.5431 19.8606 37.5431 19.8606C37.9807 17.8943 37.1052 16.4052 35.5182 15.1444C34.9393 14.6804 33.7814 13.8027 32.4936 12.8342C32.4936 12.8342 33.2471 12.094 33.9131 10.6104C34.3874 9.55792 34.4118 8.35318 33.2616 8.07793C31.3614 7.62926 29.7747 9.02914 29.3089 10.5234C28.9443 11.6868 29.1314 12.5509 29.8388 13.4471C29.8886 13.5075 29.9484 13.578 30.0082 13.6485C29.5748 14.4803 28.9802 15.5926 28.4765 16.4642C27.0764 18.8688 26.0185 20.7726 25.2277 20.7697C24.5971 20.7675 24.6041 18.8297 24.6107 17.0125C24.6164 15.4462 24.7351 13.0972 24.844 10.6679C24.8769 9.86478 24.4782 9.40149 23.809 8.98741C23.3996 8.73492 22.5305 8.22975 22.03 8.22794C21.2693 8.22518 19.0968 8.3177 17.0131 14.2941C16.7501 15.0462 16.2347 16.4198 16.2347 16.4198L16.3008 9.23125C16.3014 9.06057 16.2119 8.8996 16.0121 8.78843C15.6625 8.5964 14.743 8.21154 13.9121 8.20852C13.5218 8.20711 13.3209 8.3871 13.3196 8.75859L13.1887 20.0032C13.1856 20.8566 13.202 21.8506 13.2905 22.2927C13.369 22.7247 13.5078 23.0867 13.6772 23.2981C13.8466 23.5096 14.0362 23.6709 14.3563 23.7424C14.6563 23.8037 16.2872 24.0205 16.3795 23.3983C16.4823 22.6457 16.4953 21.8324 17.3571 18.8034C18.7055 14.0894 20.4656 11.7966 21.2793 10.9863C21.42 10.8462 21.5902 10.8368 21.5793 11.0677C21.5355 12.1017 21.406 14.6815 21.318 16.88C21.0765 22.7527 22.1335 23.8509 23.655 23.8564C24.8161 23.8606 26.4619 22.7019 28.2343 19.7766C29.342 17.9533 30.4095 16.16 31.185 14.8676C31.7137 15.3615 32.3124 15.8958 32.9109 16.4703C34.2974 17.8006 34.7533 19.0573 34.4387 20.251C34.2051 21.1638 33.3309 22.0943 31.7827 21.1751C31.3332 20.9023 31.1338 20.7008 30.6844 20.398C30.4448 20.2365 30.0646 20.1849 29.8438 20.3548C29.2616 20.7944 28.9292 21.3555 28.7366 22.0375C28.554 22.7095 29.2233 23.0734 29.9128 23.3872C30.5124 23.6604 31.8028 23.9061 32.6235 23.9392C35.8262 24.0612 38.4047 22.4039 40.212 18.1333C40.5189 21.8292 41.8726 23.9326 44.2449 23.9412C45.8264 23.9469 47.4254 21.9045 48.1234 19.889C48.3206 20.713 48.6083 21.4269 48.9865 22.0307C50.7977 24.9389 54.3434 24.3292 56.1241 21.8658C56.6774 21.1047 56.7585 20.8339 56.7585 20.8339C57.0103 23.1542 58.8692 23.9742 59.9402 23.978C61.1414 23.9824 62.3746 23.4246 63.2425 21.4699C63.3419 21.6811 63.4512 21.8823 63.5707 22.0735C65.3819 24.9817 68.9276 24.3621 70.7083 21.9087C70.7887 21.7985 70.8692 21.6884 70.9296 21.5982L70.9741 23.1245C70.9741 23.1245 69.9597 24.0546 69.3371 24.6246C66.5853 27.1347 64.4963 29.0448 64.3381 31.2631C64.1276 34.1037 66.426 35.1663 68.1572 35.3132C69.9984 35.4704 71.5837 34.4521 72.5598 33.0199C73.4152 31.768 73.9856 29.0592 73.9553 26.3783C73.9391 25.3039 73.924 23.9485 73.9093 22.4825C74.8743 21.3615 75.9605 19.9498 76.9675 18.2968C78.0651 16.4936 79.2351 14.0681 79.8425 12.1827C79.8425 12.1827 80.8534 12.1964 81.9347 12.1301C82.2851 12.1112 82.385 12.1819 82.314 12.4326C82.2328 12.7436 80.9335 17.7188 82.0926 21.0464C82.8851 23.3183 84.7042 24.0579 85.7753 24.0617C87.0365 24.0663 88.2411 23.1169 88.8969 21.7036C88.9764 21.8645 89.0559 22.0154 89.1455 22.1563C90.9567 25.0645 94.4824 24.4447 96.2831 21.9914C96.6855 21.4407 96.9174 20.9596 96.9174 20.9596C97.2891 23.3706 99.1582 24.1203 100.219 24.1242C101.33 24.1282 102.393 23.6702 103.251 21.6452C103.288 22.5389 103.335 23.272 103.425 23.5033C103.474 23.644 103.794 23.8259 104.024 23.9071C105.043 24.2923 106.075 24.1153 106.466 24.0364C106.736 23.9872 106.937 23.767 106.969 23.2149C107.044 21.7594 107.013 19.3195 107.46 17.5139C108.212 14.4744 108.897 13.2922 109.229 12.711C109.411 12.3804 109.621 12.3309 109.63 12.6723C109.647 13.3752 109.67 15.4335 109.94 18.1956C110.143 20.2345 110.419 21.4303 110.628 21.8125C111.234 22.8991 111.995 22.952 112.616 22.9543C113.006 22.9557 113.827 22.8483 113.76 22.1552C113.721 21.8137 113.798 19.7357 114.53 16.7363C115.008 14.7802 115.805 13.016 116.097 12.3745C116.208 12.1339 116.248 12.3248 116.248 12.365C116.183 13.7102 116.037 18.1173 116.568 20.5289C117.297 23.7946 119.448 24.1739 120.189 24.1766C121.78 24.1823 123.096 22.9722 123.548 19.761C123.681 19.0185 123.523 18.4155 123.052 18.4138Z" fill="#262626"/>
</g>
<defs>
<clipPath id="clip0_20_39">
<rect width="123" height="35" fill="white" transform="translate(0.678589 0.078125) rotate(0.20789)"/>
</clipPath>
</defs>
</svg>
