<svg width="23" height="21" viewBox="0 0 23 21" fill="none" xmlns="http://www.w3.org/2000/svg">
<path d="M11.6997 17.0861L11.5893 17.1947L11.4687 17.0852C6.26082 12.3688 2.81811 9.24999 2.82954 6.10015C2.83745 3.92033 4.49337 2.29145 6.69336 2.29943C8.38735 2.30558 10.0334 3.40147 10.611 4.88587L12.657 4.89329C13.2454 3.41313 14.8993 2.3292 16.5933 2.33535C18.7933 2.34333 20.4373 3.98419 20.4294 6.16401C20.418 9.31385 16.9527 12.4076 11.6997 17.0861ZM16.6012 0.155529C14.6872 0.148584 12.847 1.02475 11.643 2.40458C10.449 1.01605 8.61525 0.126553 6.70127 0.119608C3.31329 0.107315 0.641776 2.72434 0.629556 6.09217C0.614647 10.2011 4.3424 13.5825 9.9889 18.693L11.5787 20.1374L13.1789 18.7045C18.8623 13.6352 22.6145 10.281 22.6294 6.17199C22.6416 2.80417 19.9892 0.167822 16.6012 0.155529Z" fill="black"/>
<path d="M11.6997 17.0861L11.5893 17.1947L11.4687 17.0852C6.26082 12.3688 2.81811 9.24999 2.82954 6.10015C2.83745 3.92033 4.49337 2.29145 6.69336 2.29943C8.38735 2.30558 10.0334 3.40147 10.611 4.88587L12.657 4.89329C13.2454 3.41313 14.8993 2.3292 16.5933 2.33535C18.7933 2.34333 20.4373 3.98419 20.4294 6.16401C20.418 9.31385 16.9527 12.4076 11.6997 17.0861ZM16.6012 0.155529C14.6872 0.148584 12.847 1.02475 11.643 2.40458C10.449 1.01605 8.61525 0.126553 6.70127 0.119608C3.31329 0.107315 0.641776 2.72434 0.629556 6.09217C0.614647 10.2011 4.3424 13.5825 9.9889 18.693L11.5787 20.1374L13.1789 18.7045C18.8623 13.6352 22.6145 10.281 22.6294 6.17199C22.6416 2.80417 19.9892 0.167822 16.6012 0.155529Z" stroke="black"/>
</svg>
